<svg width="16" height="32" viewBox="0 0 16 32" xmlns="http://www.w3.org/2000/svg"><path d="M.51 17.043h3.473v14.44c0 .286.23.517.51.517h5.888c.283 0 .51-.23.51-.516V17.11h3.993c.26 0 .478-.195.507-.456l.607-5.316c.016-.146-.03-.293-.127-.403-.096-.11-.235-.172-.38-.172H10.89V7.43c0-1.005.535-1.514 1.59-1.514h3.007c.28 0 .51-.23.51-.516V.52c0-.285-.23-.516-.51-.516h-4.144c-.03-.002-.094-.004-.19-.004-.718 0-3.217.143-5.19 1.977C3.78 4.01 4.083 6.443 4.156 6.865v3.897H.51c-.28 0-.51.23-.51.517v5.247c0 .285.23.516.51.516z" fill-rule="nonzero" fill="#385C8E"/></svg>